<svg xmlns="http://www.w3.org/2000/svg" xmlns:xlink="http://www.w3.org/1999/xlink">

  <symbol id="vk">
    <g fill="white">
      <path fill-rule="evenodd" clip-rule="evenodd" d="M24.1331 0.948C24.2991 0.402 24.1331 0 23.3381 0H20.7131C20.0451 0 19.7371 0.347 19.5701 0.73C19.5701 0.73 18.2351 3.926 16.3441 6.002C15.7321 6.604 15.4541 6.795 15.1201 6.795C14.9531 6.795 14.7021 6.604 14.7021 6.057V0.948C14.7021 0.292 14.5181 0 13.9621 0H9.83411C9.41711 0 9.16611 0.304 9.16611 0.593C9.16611 1.214 10.1121 1.358 10.2091 3.106V6.904C10.2091 7.737 10.0561 7.888 9.72211 7.888C8.8321 7.888 6.66711 4.677 5.38211 1.003C5.13311 0.288 4.88111 0 4.21011 0H1.58311C0.833105 0 0.683105 0.347 0.683105 0.73C0.683105 1.412 1.57311 4.8 4.82811 9.281C6.99811 12.341 10.0531 14 12.8361 14C14.5051 14 14.7111 13.632 14.7111 12.997V10.684C14.7111 9.947 14.8691 9.8 15.3981 9.8C15.7881 9.8 16.4551 9.992 18.0131 11.467C19.7931 13.216 20.0861 14 21.0881 14H23.7131C24.4631 14 24.8391 13.632 24.6231 12.904C24.3851 12.18 23.5351 11.129 22.4081 9.882C21.7961 9.172 20.8781 8.407 20.5991 8.024C20.2101 7.533 20.3211 7.314 20.5991 6.877C20.5991 6.877 23.7991 2.451 24.1321 0.948H24.1331Z" fill="white"/>
    </g>
  </symbol>

  <symbol id="tg">
    <g fill="white">
      <path d="M21.1223 1.62225L17.9535 16.566C17.7143 17.6205 17.091 17.883 16.2053 17.3865L11.3768 13.8285L9.04725 16.0695C8.78925 16.3275 8.574 16.5428 8.07675 16.5428L8.424 11.6258L17.3723 3.54C17.7615 3.1935 17.2875 3.00075 16.7678 3.348L5.70525 10.314L0.942754 8.823C-0.0929958 8.49975 -0.111746 7.78725 1.15875 7.29L19.7865 0.113253C20.649 -0.209997 21.4035 0.305253 21.1223 1.623V1.62225Z" fill="white"/>
    </g>
  </symbol>

  <symbol id="youtube">
    <g fill="white">
      <path d="M17.8644 0H3.49641C1.98928 0 0.683105 1.3 0.683105 2.8V11.1C0.683105 12.7 1.98928 14 3.49641 14H17.8644C19.472 14 20.6777 12.7 20.6777 11.2V2.8C20.7781 1.3 19.472 0 17.8644 0ZM7.71637 10.4V3.6L14.5487 7L7.71637 10.4Z"/>
    </g>
  </symbol>

  <symbol id="footer-htmlacademy" >
    <g fill="currentColor">
      <path d="M14.3332 0.450012H14.2332L0.733154 1.85001V26.55L14.2332 34.55L27.6332 26.55V1.85001L14.3332 0.450012ZM25.7332 12.55L14.2332 5.75001V5.65001H14.1332L14.0332 5.55001V5.65001L2.63315 12.55V3.55001L14.1332 2.35001L25.7332 3.55001V12.55ZM14.1332 7.25001L25.6332 13.95L21.1332 16.55L14.0332 12.35V13.75L19.9332 17.25L19.0332 17.75L14.0332 14.75V16.15L17.8332 18.45L17.0332 18.95L14.0332 17.15V18.55L15.9332 19.65L14.1332 20.75L2.73315 14.05L14.1332 7.25001ZM2.63315 15.55L14.0332 22.35V23.35L6.13315 18.65V20.05L14.1332 24.85V25.95L6.13315 21.25V22.65L14.1332 27.45L22.2332 22.55V17.35L25.6332 15.35V25.35L14.1332 32.25L2.63315 25.45V15.55Z" fill="currentColor"/>
    </g>
  </symbol>

  <symbol id="like">
    <g fill="black">
      <path d="M12.9636 3.78L12.3364 6.825L11.7091 9.45H14.3227H20.8045V11.55C20.8045 11.55 20.8045 11.55 20.8045 11.655L17.7727 18.9H8.36364V8.4L12.9636 3.78ZM2.09091 10.5V18.9V10.5ZM13.8 0L6.9 6.93C6.48182 7.245 6.27273 7.77 6.27273 8.4V18.9C6.27273 20.055 7.21364 21 8.36364 21H17.7727C18.6091 21 19.3409 20.475 19.6545 19.74L22.7909 12.285C22.8955 12.075 22.8955 11.76 22.8955 11.55V9.45H23C23 8.295 22.0591 7.35 20.9091 7.35H14.3227L15.3682 2.52V2.205C15.3682 1.785 15.1591 1.365 14.95 1.05L13.8 0ZM4.18182 8.4H0V21H4.18182V8.4Z" fill="currentColor"/>
    </g>
  </symbol>

  <symbol id="phone">
    <g fill="#010101">
      <path d="M3.6 7.8C5 10.6 7.4 12.9 10.2 14.4L12.4 12.2C12.7 11.9 13.1 11.8 13.4 12C14.5 12.4 15.7 12.6 17 12.6C17.6 12.6 18 13 18 13.6V17C18 17.6 17.6 18 17 18C7.6 18 0 10.4 0 1C0 0.4 0.4 0 1 0H4.5C5.1 0 5.5 0.4 5.5 1C5.5 2.2 5.7 3.4 6.1 4.6C6.2 4.9 6.1 5.3 5.9 5.6L3.6 7.8Z" fill="#010101"/>
    </g>
  </symbol>

  <symbol id="mail">
    <g fill="black">
      <path d="M8 8C7.7 8 7.5 7.9 7 7.7L0 4V11C0 11.5 0.5 12 1 12H15C15.5 12 16 11.5 16 11V4L9 7.7C8.5 7.9 8.3 8 8 8ZM15 0H1C0.5 0 0 0.5 0 1V1.8L8 6L16 1.8V1C16 0.5 15.5 0 15 0Z" fill="black"/>
    </g>
  </symbol>

</svg>
